<?xml version="1.0" encoding="utf-8"?>
<!-- Generator: Adobe Illustrator 23.1.0, SVG Export Plug-In . SVG Version: 6.00 Build 0)  -->
<svg version="1.1" id="Layer_1" xmlns="http://www.w3.org/2000/svg" xmlns:xlink="http://www.w3.org/1999/xlink" x="0px" y="0px"
	 viewBox="0 0 1164.3 572.9" style="enable-background:new 0 0 1164.3 572.9;" xml:space="preserve">
<g>
	<path d="M1115.9,429.5c-100.1-0.2-200.3-0.4-300.4-0.6c-87.1-0.2-174.3-0.4-261.4-0.5c-23.9,0-41.4-10.5-52.6-31.6
		c-0.6-1.2-1.2-2.4-1.8-3.5c-0.1-0.1-0.2-0.2-0.6-0.7c-1,0.5-2.2,0.9-3.3,1.5c-12.1,7.1-24.2,14-36.2,21.3
		c-16.4,9.9-34.1,14.5-53.3,14.5c-115.6-0.1-231.3,0-346.9,0c-1.2,0-2.3-0.1-3.5-0.2c0-0.7,0-1.3,0-2c2.3-0.1,4.6-0.4,7-0.4
		c112.7,0,225.3-0.1,338,0.2c22.3,0.1,42.8-4.9,61.7-16.9c11.5-7.3,23.5-13.9,35-20.7c-4.8-13.8-9.4-27.3-14.3-41.3
		c-15.4,7.5-31.4,15.3-48.7,23.7c-1.9-103.7-3.7-206.3-5.6-310.7C540.5,120,651,178.2,762.8,237.1
		c-87.8,51.5-174.3,102.4-261.2,153.4c8.4,19.2,21.9,31.6,43,34c9.1,1,18.3,1.1,27.4,1.1c178.5,0.5,357,0.9,535.4,1.3
		c2.8,0,5.6-0.2,8.4-0.4C1115.9,427.5,1115.9,428.5,1115.9,429.5z M696.6,243.7c-2.9,1.5-4.3,2.3-5.7,3
		c-36.5,17.9-73,35.7-109.5,53.6c-30.1,14.7-60.1,29.4-90.1,44.2c-1.7,0.8-3.9,3.2-3.7,4.7c1.6,13.7,7.9,25.8,12.8,38.9
		c85.8-50.4,171-100.5,256.9-150.9C648.4,179.9,540.5,123.1,431.8,65.9c1.8,101.1,3.6,201.1,5.4,301.9c2.6-1.3,4.6-2.1,6.5-3.1
		c11.5-5.6,22.9-11.6,34.6-16.8c4.8-2.2,6.3-4.8,6.2-10.1c-2-68.6-3.8-137.3-5.6-205.9c-0.1-1.9,0-3.8,0-7
		C551.7,164.6,623.5,203.7,696.6,243.7z M481.5,129.3c1.9,71.8,3.8,142.5,5.8,214C555.5,310,622.8,277,691,243.7
		C620.8,205.4,551.6,167.6,481.5,129.3z"/>
</g>
</svg>
